<?xml version="1.0" encoding="utf-8"?>
<!-- Generator: Adobe Illustrator 16.0.0, SVG Export Plug-In . SVG Version: 6.00 Build 0)  -->
<!DOCTYPE svg PUBLIC "-//W3C//DTD SVG 1.1//EN" "http://www.w3.org/Graphics/SVG/1.1/DTD/svg11.dtd">
<svg version="1.1" id="Layer_1" xmlns="http://www.w3.org/2000/svg" xmlns:xlink="http://www.w3.org/1999/xlink" x="0px" y="0px"
	 width="100px" height="100px" viewBox="0 0 100 100" enable-background="new 0 0 100 100" xml:space="preserve">
<path fill="#FFFFFF" stroke="#000000" stroke-miterlimit="10" d="M100,24.942c0,4.656-3.774,8.43-8.43,8.43H8.43
	c-4.656,0-8.43-3.774-8.43-8.43l0,0c0-4.656,3.774-8.43,8.43-8.43H91.57C96.226,16.513,100,20.287,100,24.942L100,24.942z"/>
<path fill="#FFFFFF" stroke="#000000" stroke-miterlimit="10" d="M100,50c0,4.656-3.774,8.43-8.43,8.43H8.43
	C3.774,58.43,0,54.656,0,50l0,0c0-4.656,3.774-8.43,8.43-8.43H91.57C96.226,41.57,100,45.344,100,50L100,50z"/>
<path fill="#FFFFFF" stroke="#000000" stroke-miterlimit="10" d="M100,76.215c0,4.656-3.774,8.43-8.43,8.43H8.43
	c-4.656,0-8.43-3.773-8.43-8.43l0,0c0-4.656,3.774-8.43,8.43-8.43H91.57C96.226,67.785,100,71.559,100,76.215L100,76.215z"/>
</svg>
